# xmcd
# 
# Track frame offsets:
#     150
#     15170
#     28313
#     47196
#     65296
#     85908
#     104170
#     119397
#     135454
#     150306
#     170408
#     191265
#     210027
#     228461
#     247526
#     269330
# 
# Disc length: 3864
# 
# Revision: 0
# Processed by: cddbd v1.5.2PL0 Copyright (c) Steve Scherf et al.
# Submitted via: fre:ac v1.0.17
# 
DISCID=c30f1610
DTITLE=Acda en de Munnik - Op Voorraad Live
DYEAR=1999
DGENRE=Nederlandstalig
TTITLE0=Naar huis
TTITLE1=Drie keer vallen
TTITLE2=Het geeft niet
TTITLE3=Als je bij me weggaat
TTITLE4=Niet of nooit geweest
TTITLE5=Mis ik jou
TTITLE6=Ik weet het beter
TTITLE7=Vondelpark vannacht
TTITLE8=Bij haar zijn
TTITLE9=Het regent zonnestralen
TTITLE10=Lopen tot de zon komt
TTITLE11=Slaap zacht, Elisabeth
TTITLE12=De kapitein
TTITLE13=Niemand sterft
TTITLE14=Wennen aan jou
TTITLE15=Als het vuur gedoofd is
EXTD=
EXTT0=
EXTT1=
EXTT2=
EXTT3=
EXTT4=
EXTT5=
EXTT6=
EXTT7=
EXTT8=
EXTT9=
EXTT10=
EXTT11=
EXTT12=
EXTT13=
EXTT14=
EXTT15=
PLAYORDER=
